<?xml version="1.0" encoding="UTF-8" standalone="no"?>
<!-- Created with Inkscape (http://www.inkscape.org/) -->

<svg
   version="1.1"
   id="svg1"
   width="80"
   height="80"
   viewBox="0 0 80 80"
   xmlns="http://www.w3.org/2000/svg"
   xmlns:svg="http://www.w3.org/2000/svg">
  <defs
     id="defs1" />
  <g
     id="g1"
     transform="matrix(0.25,0,0,0.25,-36.694563,-33.779875)">
    <path
       style="fill:#4e2112;stroke:none;stroke-width:0.577869"
       d="m 232.93575,135.1195 c -2.28016,12.78944 -3.83178,25.17587 3.74748,36.43564 -14.97172,-5.91048 -24.15059,-22.14679 -35.97577,-32.47524 0,11.11131 -1.38197,25.88893 6.15558,34.8197 3.03386,3.59461 7.25567,5.49946 11.08281,7.95257 -14.31554,7.8483 -19.28173,22.18414 -37.47476,18.21783 4.35613,7.2072 10.82099,10.22776 18.73738,10.29703 -8.47679,20.20979 -18.83224,36.51367 -32.08082,53.86138 -5.94503,7.78443 -17.74447,16.18424 -19.98481,26.13862 -1.16023,5.15521 0.7124,10.13045 1.93619,15.0495 1.0684,4.29436 1.44119,9.63565 3.66709,13.45374 4.34864,7.45921 16.81059,12.09855 24.72699,10.86235 11.37915,-1.77693 7.48808,-10.8292 12.96869,-17.94767 4.55049,-5.91039 13.01165,-9.37186 19.2596,-12.87923 5.21462,-2.92733 11.1935,-7.84527 17.23839,-8.36084 8.77161,-0.74813 16.42138,3.48984 25.48284,1.02737 26.92774,-7.31763 30.71448,-36.19904 27.73132,-60.61117 h 0.7495 c 2.9133,7.39505 7.00741,14.60894 6.58873,22.9703 -0.31059,6.20247 -3.70752,11.44224 -4.26159,17.42574 -1.01292,10.93844 -0.38927,20.87028 -3.19057,31.68317 -5.62777,21.72313 -16.50854,41.22095 -22.97468,62.57426 -6.13152,20.24821 -8.02738,44.46265 7.47703,60.85503 6.26567,6.62452 14.28556,11.40204 22.35704,15.06541 10.08673,4.57797 20.67523,7.89731 31.4788,9.96025 16.59278,3.16842 32.65373,3.62426 49.46668,3.62426 v -0.79208 c -19.82883,-9.95734 -32.62659,-37.45398 -31.40883,-60.19802 1.44472,-26.98244 12.14712,-51.4961 17.59985,-77.62376 3.81216,-18.2666 4.02835,-36.17802 1.81706,-54.65348 h 0.74949 c 2.70631,19.43873 5.30344,36.50404 1.49612,56.23764 -5.70541,29.57147 -19.4687,57.23294 -10.47099,87.92079 12.56663,42.86003 55.1614,50.93513 90.66988,36.77118 9.43841,-3.76489 22.17007,-9.12005 28.48078,-17.76128 -42.38322,12.5921 -82.58559,-11.9069 -86.19194,-60.19802 h 0.7495 c 5.00484,22.26821 24.65699,43.68778 45.71923,48.92189 9.49878,2.36052 18.19845,0.98209 27.7313,0.18702 v -0.79208 c -32.49438,-4.62806 -59.69914,-45.9471 -59.95963,-79.20792 h 0.74953 c 4.22749,10.02415 16.17893,19.6534 26.23229,22.17822 -13.52306,-22.95343 -25.14492,-47.15665 -28.48077,-74.45544 5.89941,6.51504 12.11641,14.85864 14.24039,23.76237 h 0.74947 c -0.0651,-24.9745 -14.36057,-45.1855 -31.47878,-60.9901 l 23.23437,15.84158 c -6.03701,-13.64881 -17.75854,-23.85815 -28.48084,-33.33089 -16.86362,-14.89839 -35.14069,-33.23311 -56.96164,-39.5404 v -0.79207 c 18.86782,4.57123 35.6682,13.38345 51.71517,24.55445 -2.79194,-8.75022 -11.95409,-16.27763 -18.73738,-21.65138 C 325.21994,171.77138 299.48415,168.0092 272.659,164.42643 v -0.79208 h 26.98183 v -0.79207 c -14.8185,-6.07408 -29.26925,-7.87864 -44.96972,-4.75248 5.81106,8.34388 14.49079,12.21933 14.98991,23.76237 h -0.7495 c -3.74582,-10.2914 -13.36006,-16.65774 -20.10914,-24.55445 -5.81789,-6.8072 -9.81823,-15.87316 -15.86663,-22.17822 m 37.47476,46.73267 -0.74949,0.79207 0.74949,-0.79207 m -42.72122,5.54455 c -2.53734,12.95691 -9.59286,18.27178 -16.21939,28.5179 -5.70627,8.8232 -9.99995,18.49646 -16.34606,26.92766 -8.7926,11.68149 -20.07164,21.94916 -28.14366,34.0594 h -0.7495 c 4.84489,-14.0656 16.15063,-25.91278 24.1932,-38.0198 6.49429,-9.77632 9.56501,-22.37948 16.12975,-31.61228 4.99277,-7.02196 14.64281,-14.34012 21.13566,-19.87288 m 17.98789,30.09902 v 0.79208 l -16.4889,0.25484 -10.49293,7.66595 c 4.43064,-15.91229 15.73083,-8.74563 26.98183,-8.71287 m -6.74547,3.96039 c -3.1966,8.6647 -9.54309,10.92391 -17.23839,7.12871 v -0.79208 c 7.35559,1.50236 11.07265,0.1178 15.7394,-6.33663 h 1.49899 m 41.22224,8.71287 -0.74949,0.79208 0.74949,-0.79208 m 96.68489,13.46535 -0.74951,0.79208 0.74951,-0.79208 m -20.98587,16.63366 -0.7495,0.79208 0.7495,-0.79208 m 37.47479,20.59407 -0.74954,0.79208 0.74954,-0.79208 m -224.0991,11.88118 c -2.46953,5.89358 -5.9895,9.76981 -4.49697,16.63366 l 9.74344,-6.33663 c -0.63562,4.59703 -7.24916,12.68299 -12.28918,8.56803 -5.85194,-4.77786 2.75784,-16.85532 7.04271,-18.86506 z"
       id="path1" />
    <path
       style="fill:#ffffff;stroke-width:0.0711554"
       d="m 166.51532,276.49209 c 1.27685,-3.57303 3.4187,-7.90785 5.91534,-11.9719 2.24806,-3.65941 4.59845,-7.01439 9.87013,-14.08877 7.88806,-10.58544 9.44135,-12.93864 12.09425,-18.32251 0.52066,-1.05666 1.25033,-2.59362 1.62148,-3.41546 0.64245,-1.42262 0.96087,-2.14685 2.96776,-6.75007 3.96925,-9.10435 6.3094,-13.2255 9.86428,-17.37161 1.64888,-1.92311 4.86473,-5.09921 7.76297,-7.667 l 0.86336,-0.76492 h 3.70587 c 2.03823,0 3.70587,0.0252 3.70587,0.056 0,0.0952 -1.16415,2.35902 -1.59952,3.11038 -0.73765,1.27305 -1.60118,2.62173 -2.49467,3.89625 -0.92345,1.31727 -1.2114,1.70565 -4.83994,6.52802 -4.07094,5.41032 -5.79941,8.11807 -10.24257,16.04554 -4.48847,8.00831 -5.63053,9.94727 -7.77448,13.19932 -3.32796,5.04802 -6.42266,8.86717 -15.13524,18.6783 -8.64377,9.73363 -11.76205,13.54607 -15.26285,18.6605 l -0.59664,0.87165 h -0.33666 -0.33667 z"
       id="path2" />
    <path
       style="fill:#ffffff;stroke-width:0.0711554"
       d="m 227.19919,230.46507 c -1.77599,-0.25511 -3.27737,-0.69285 -4.85636,-1.41588 l -0.58703,-0.26881 v -0.38625 c 0,-0.33528 0.0164,-0.3811 0.12452,-0.34723 0.19531,0.0612 1.6877,0.30587 2.47265,0.4054 1.02886,0.13044 3.18755,0.1152 4.02113,-0.0284 3.09754,-0.53362 5.498,-2.1627 8.15384,-5.53362 0.25077,-0.31829 0.55725,-0.71977 0.68106,-0.89218 l 0.22511,-0.31346 h 0.69949 c 0.38472,0 0.69949,0.028 0.69949,0.0622 0,0.1299 -0.50262,1.30115 -0.88883,2.07124 -0.82643,1.64785 -1.70437,2.87913 -2.81924,3.95388 -0.80722,0.77817 -1.51001,1.28423 -2.41129,1.73631 -1.4073,0.7059 -2.34472,0.92838 -4.05586,0.96257 -0.68487,0.0137 -1.34128,0.0111 -1.45868,-0.006 z"
       id="path3" />
    <path
       style="fill:#ffffff;stroke-width:0.0711554"
       d="m 218.80188,226.15385 c 0.98101,-3.43894 2.50602,-6.18334 4.28126,-7.70452 2.53249,-2.17006 5.6906,-2.78918 10.87581,-2.13211 0.46962,0.0595 2.10264,0.29798 3.62892,0.52993 3.92531,0.59653 6.22254,0.85279 7.64475,0.85279 h 0.43139 v 0.34813 0.34813 l -1.22743,0.0424 c -0.67509,0.0233 -2.60429,0.0603 -4.28711,0.0821 -1.68283,0.0218 -4.84417,0.0705 -7.0252,0.10817 l -3.96551,0.0685 -4.1462,3.03526 c -2.28041,1.6694 -4.62126,3.38407 -5.20188,3.81038 -0.81609,0.5992 -1.04503,0.73782 -1.0088,0.6108 z"
       id="path4" />
    <path
       style="fill:#ffffff;stroke-width:0.0711554"
       d="m 164.13237,312.94888 c -0.20839,-0.0529 -0.65667,-0.2336 -0.99617,-0.40153 -0.50978,-0.25216 -0.7356,-0.42409 -1.29682,-0.98737 -0.55921,-0.56126 -0.73172,-0.78916 -0.97409,-1.28687 -0.42682,-0.87647 -0.52407,-1.3056 -0.56735,-2.50336 -0.0443,-1.22713 0.0675,-2.04903 0.45326,-3.33138 0.52489,-1.74485 1.40418,-3.53247 2.69497,-5.47897 1.22582,-1.84852 2.71423,-3.56449 4.04623,-4.66482 0.64973,-0.53673 1.53003,-1.1297 1.58922,-1.07051 0.0544,0.0544 -0.37281,0.98046 -1.75955,3.81414 -1.94137,3.96704 -2.48173,5.39344 -2.82014,7.44444 -0.22857,1.38533 -0.14256,3.94361 0.1715,5.10074 l 0.0542,0.19971 4.85751,-3.16708 4.8575,-3.16709 -0.0466,0.26347 c -0.10694,0.60516 -0.56305,1.84706 -0.98271,2.67573 -1.59572,3.15095 -4.18913,5.65395 -6.69628,6.46285 -0.55912,0.18039 -2.03903,0.23644 -2.58473,0.0979 z"
       id="path5" />
    <path
       style="fill:#ffffff;stroke-width:0.0251572"
       d="m 224.85533,196.18061 c -0.0378,-0.0223 -0.9607,-0.0318 -3.72326,-0.0384 l -3.67296,-0.009 0.11321,-0.10165 c 0.77382,-0.69475 3.02527,-2.59205 6.96856,-5.8724 1.03081,-0.85752 2.15136,-1.79387 2.49011,-2.08079 0.33874,-0.28692 0.61945,-0.511 0.6238,-0.49795 0.0133,0.0398 -0.23723,1.17957 -0.43563,1.98221 -0.5285,2.13805 -1.22171,4.18087 -2.08553,6.14591 -0.2419,0.55028 -0.21693,0.50795 -0.2783,0.47175 z"
       id="path6" />
    <path
       style="fill:#ffffff;stroke-width:0.00444721"
       d="m 215.02939,199.44948 v -1.10867 l 0.15232,-0.14027 c 0.60182,-0.55422 0.96436,-0.88004 1.99512,-1.79306 l 0.29962,-0.2654 1.77056,-0.001 c 0.9738,-6.1e-4 1.53941,-0.002 1.2569,-0.002 -0.28251,-6.9e-4 -1.08173,-0.003 -1.77605,-0.004 l -1.2624,-0.003 0.11502,-0.1028 c 0.60873,-0.54408 1.77771,-1.53671 3.99743,-3.39437 l 0.56924,-0.47639 2.16468,-1e-5 c 1.43423,-1e-5 2.16468,0.001 2.16468,0.004 0,0.006 -0.10064,0.31196 -0.16815,0.51145 -0.35365,1.04508 -0.73598,2.0288 -1.19609,3.07747 -0.11793,0.2688 -0.1431,0.32473 -0.16845,0.37435 -0.0282,0.0551 -0.0391,0.0704 -0.0505,0.0704 -0.006,0 -0.0103,0.006 -0.0159,0.023 -0.0713,0.21476 -1.00151,2.02872 -1.4842,2.89436 -0.16677,0.29908 -0.46799,0.80687 -0.79728,1.34403 l -0.0619,0.10104 -3.75234,1.4e-4 -3.75233,1.3e-4 z m 9.85057,-3.25651 c 0,-0.001 -0.009,-0.006 -0.019,-0.0109 -0.0248,-0.0109 -0.12068,-0.0164 -0.39016,-0.0222 -0.23794,-0.005 -1.38971,-0.0147 -1.48982,-0.0125 -0.0379,8.5e-4 0.0131,0.002 0.11341,0.003 0.22708,10e-4 0.73551,0.008 1.03842,0.0143 0.43735,0.009 0.66778,0.0182 0.7438,0.0306 0.002,3e-4 0.003,-5.7e-4 0.003,-0.002 z m -2.46264,-0.0498 c -0.0422,-7.3e-4 -0.11124,-7.3e-4 -0.15343,0 -0.0422,7.3e-4 -0.008,0.001 0.0767,0.001 0.0844,0 0.1189,-6e-4 0.0767,-0.001 z"
       id="path7" />
    <path
       style="fill:#ffffff;stroke-width:0.00444721"
       d="m 215.02939,199.44899 v -1.10916 l 0.0214,-0.0193 c 0.0118,-0.0106 0.11732,-0.10742 0.23459,-0.21512 0.58504,-0.53725 0.88412,-0.80571 1.91142,-1.7157 l 0.27954,-0.24761 1.52826,-0.001 c 0.84054,-5.9e-4 1.40518,-0.002 1.25475,-0.002 -0.15043,-7e-4 -0.84058,-0.003 -1.53368,-0.004 l -1.26017,-0.003 0.11502,-0.1028 c 0.62186,-0.55581 1.78029,-1.53902 4.13529,-3.50979 l 0.43138,-0.36099 h 2.16468 c 1.37507,0 2.16468,0.002 2.16468,0.004 0,0.0127 -0.17802,0.54535 -0.28027,0.83857 -0.29689,0.85138 -0.63799,1.72494 -0.99065,2.53706 -0.19552,0.45025 -0.26975,0.61349 -0.29264,0.6435 -0.006,0.008 -0.0148,0.0147 -0.0193,0.0147 -0.006,0 -0.011,0.008 -0.0196,0.0323 -0.0793,0.22333 -0.91699,1.86139 -1.414,2.76496 -0.18139,0.32978 -0.46296,0.80862 -0.7793,1.32527 -0.0607,0.0991 -0.11847,0.19362 -0.12848,0.21013 l -0.0182,0.03 h -3.75236 -3.75236 z m 9.83896,-3.26256 c -0.008,-0.005 -0.0278,-0.0106 -0.0489,-0.0131 -0.0914,-0.0111 -0.66653,-0.0207 -1.42039,-0.0237 -0.23359,-9.1e-4 -0.38168,-0.001 -0.32909,-3.9e-4 0.0526,7e-4 0.26772,0.003 0.47807,0.006 0.72062,0.009 1.20782,0.0223 1.30081,0.0356 0.0135,0.002 0.0265,0.004 0.0289,0.004 0.002,2.5e-4 -0.002,-0.004 -0.009,-0.008 z m -2.53544,-0.0428 c -0.003,-0.001 -0.009,-0.001 -0.0133,-1.7e-4 -0.004,0.001 -0.002,0.002 0.005,0.002 0.007,9e-5 0.0109,-8.3e-4 0.008,-0.002 z"
       id="path8" />
    <path
       style="fill:#ffffff;stroke-width:0.00444721"
       d="m 215.02939,199.44927 v -1.1089 l 0.0745,-0.0687 c 0.30474,-0.28105 0.65139,-0.59665 0.96171,-0.87561 0.31483,-0.28301 0.33147,-0.29783 0.89754,-0.79949 l 0.51286,-0.4545 1.37276,-10e-4 c 0.75502,-5.8e-4 1.2837,-0.002 1.17486,-0.002 -0.10885,-7e-4 -0.72909,-0.003 -1.37833,-0.004 l -1.18043,-0.003 0.15535,-0.13803 c 0.64985,-0.57744 1.79457,-1.54923 3.8999,-3.31073 0.30819,-0.25786 0.57535,-0.48141 0.5937,-0.49679 l 0.0334,-0.028 2.16504,-4e-5 2.16503,-4e-5 -0.003,0.0144 c -0.005,0.0228 -0.17247,0.52522 -0.24126,0.72382 -0.28508,0.8231 -0.58447,1.60163 -0.91926,2.39038 -0.12661,0.29827 -0.30541,0.70579 -0.35365,0.80601 -0.0386,0.0803 -0.0496,0.0978 -0.0644,0.10345 -0.007,0.003 -0.0136,0.0132 -0.0224,0.0364 -0.10199,0.26923 -1.00454,2.02862 -1.46195,2.84986 -0.16533,0.29685 -0.47694,0.8239 -0.76183,1.28858 l -0.1152,0.18789 h -3.75236 -3.75236 z m 9.83896,-3.26284 c -0.008,-0.005 -0.0277,-0.0105 -0.0489,-0.0131 -0.0581,-0.007 -0.29049,-0.0132 -0.66881,-0.0177 -0.35364,-0.004 -1.11567,-0.009 -1.02953,-0.006 0.0245,7.3e-4 0.21658,0.003 0.42693,0.006 0.71828,0.009 1.20767,0.0222 1.30081,0.0355 0.0135,0.002 0.0265,0.004 0.0289,0.004 0.002,2.5e-4 -0.002,-0.004 -0.009,-0.008 z"
       id="path9" />
  </g>
</svg>
